<svg xmlns="http://www.w3.org/2000/svg" width="98" height="110" viewBox="0 0 98 110">
  <defs>
    <linearGradient id="cpp-icon-a" x1="10.314%" x2="89.686%" y1="100%" y2="0%">
      <stop offset="0%" stop-color="#FEA7A2"/>
      <stop offset="75.322%" stop-color="#FFDACD"/>
      <stop offset="100%" stop-color="#FFE9E1"/>
    </linearGradient>
  </defs>
  <path fill="url(#cpp-icon-a)" d="M944.125667,2150.91653 L944.125667,2150.91653 L904.827667,2128.28601 C901.850333,2126.57133 898.152,2126.57133 895.172333,2128.28601 L855.874333,2150.91653 C852.869,2152.64795 851,2155.88601 851,2159.36799 L851,2204.63141 C851,2208.111 852.866667,2211.34906 855.874333,2213.08048 L895.172333,2235.71339 C896.661,2236.56953 898.331667,2237 900,2237 C901.668333,2237 903.339,2236.57193 904.827667,2235.71339 L944.125667,2213.08288 C947.133333,2211.34667 949,2208.10861 949,2204.62902 L949,2159.36799 C949,2155.88601 947.131,2152.64795 944.125667,2150.91653 Z M899.852567,2211 C884.494197,2211 872,2197.99108 872,2182 C872,2166.00892 884.494197,2153 899.852567,2153 C908.626126,2153 916.738186,2157.24125 922,2164.45742 L911.833813,2170.58608 C908.774673,2167.10608 904.431993,2165.08333 899.852567,2165.08333 C890.893325,2165.08333 883.605236,2172.67167 883.605236,2182 C883.605236,2191.32833 890.893325,2198.91667 899.852567,2198.91667 C904.431993,2198.91667 908.774673,2196.89392 911.833813,2193.41392 L922,2199.54258 C916.738186,2206.75875 908.626126,2211 899.852567,2211 Z M927,2185 L922.333333,2185 L922.333333,2190 L917.666667,2190 L917.666667,2185 L913,2185 L913,2180 L917.666667,2180 L917.666667,2175 L922.333333,2175 L922.333333,2180 L927,2180 L927,2185 Z M944,2185 L939.333333,2185 L939.333333,2190 L934.666667,2190 L934.666667,2185 L930,2185 L930,2180 L934.666667,2180 L934.666667,2175 L939.333333,2175 L939.333333,2180 L944,2180 L944,2185 Z" transform="translate(-851 -2127)"/>
</svg>
