<svg xmlns="http://www.w3.org/2000/svg" width="84" height="112" viewBox="0 0 84 112">
  <defs>
    <linearGradient id="java-icon-a" x1="21.875%" x2="78.125%" y1="100%" y2="0%">
      <stop offset="0%" stop-color="#FEA7A2"/>
      <stop offset="75.322%" stop-color="#FFDACD"/>
      <stop offset="100%" stop-color="#FFE9E1"/>
    </linearGradient>
  </defs>
  <path fill="url(#java-icon-a)" d="M1046.36961,2216.00832 C1046.87703,2215.9403 1047.34142,2216.29653 1047.41926,2216.81377 C1047.49709,2217.33102 1047.15769,2217.81713 1046.6555,2217.90705 C1042.1987,2218.70597 1038.00834,2220.11936 1037.40849,2221.00359 C1038.96369,2222.3309 1050.81144,2224.60777 1067.00035,2224.60777 C1069.64674,2224.60738 1072.24448,2224.54052 1074.72135,2224.40794 C1092.80226,2223.46645 1103.66173,2220.33187 1104.73832,2219.2993 C1105.2188,2218.8055 1105.12375,2218.44236 1104.95947,2218.22524 C1104.65412,2217.8644 1104.66123,2217.33678 1104.96546,2216.97517 C1105.27044,2216.61395 1105.79508,2216.54631 1106.18612,2216.80455 C1106.34853,2216.91176 1107.77762,2217.89821 1107.97782,2219.50989 C1108.05902,2220.16471 1107.95612,2221.1673 1107.00264,2222.22676 C1104.51982,2224.98651 1092.44374,2229.24502 1070.16309,2229.91115 L1070.42454,2229.91008 C1082.173,2229.89402 1090.35655,2229.45261 1094.75437,2228.59743 C1105.84229,2226.40009 1109.9193,2222.73916 1110.35032,2222.32613 L1110.38897,2222.28817 C1110.66235,2222.00231 1111.09455,2221.91929 1111.46054,2222.08352 C1111.82579,2222.24775 1112.04077,2222.62096 1111.99353,2223.00861 C1111.95969,2223.28581 1111.00789,2229.82788 1097.41227,2232.14079 C1090.1207,2233.37449 1082.40178,2234 1074.46936,2234 C1057.93056,2234 1045.83461,2231.24999 1045.71448,2231.22219 C1045.2488,2231.11463 1044.94307,2230.68114 1045.0089,2230.22058 C1045.07436,2229.76002 1045.48685,2229.42001 1045.96889,2229.44275 C1046.00304,2229.44414 1047.03991,2229.48576 1048.79774,2229.54365 C1035.26515,2228.60915 1031.56773,2226.41443 1030.0486,2224.66156 C1029.23694,2223.72469 1028.8938,2222.6487 1029.02851,2221.46281 C1029.47194,2217.57234 1037.9698,2216.54439 1045.32333,2216.08325 C1045.81765,2216.05251 1046.24387,2216.02561 1046.36961,2216.00832 Z M1056.30856,2207 C1056.71579,2206.99479 1057.07838,2207.25944 1057.19888,2207.66263 C1057.31975,2208.06583 1057.16876,2208.50338 1056.82831,2208.73405 C1056.66534,2208.85863 1056.64393,2209.00209 1056.66062,2209.11572 C1057.82062,2209.72052 1063.86888,2210.6447 1069.30665,2210.6447 C1070.82017,2210.6447 1072.11011,2210.5707 1073.14017,2210.42535 C1078.58375,2209.65634 1082.19078,2208.87826 1082.22671,2208.87033 C1082.45175,2208.82239 1082.68767,2208.86391 1082.88475,2208.98888 L1082.88475,2208.98888 L1088.5657,2212.59612 C1088.85026,2212.77695 1089.01649,2213.10578 1088.9987,2213.45197 C1088.98092,2213.79853 1088.78202,2214.10659 1088.48041,2214.25496 C1088.16935,2214.40786 1080.74078,2218 1069.71062,2218 C1068.6802,2218 1067.63779,2217.96791 1066.61136,2217.90411 C1057.93532,2217.38048 1052.79008,2215.98402 1050.88385,2213.63431 C1050.20041,2212.79205 1049.91114,2211.83239 1050.02365,2210.78174 C1050.39532,2207.26585 1055.70424,2207.01669 1056.30856,2207 Z M1052.72772,2196.02483 C1053.20701,2195.91494 1053.69263,2196.17938 1053.8359,2196.62814 C1053.97953,2197.0769 1053.73059,2197.55473 1053.26879,2197.71743 C1052.85052,2197.86808 1052.20192,2198.24914 1052.08098,2198.56993 C1052.06535,2198.6107 1052.03744,2198.68407 1052.12564,2198.84536 C1052.79173,2199.4196 1057.36582,2200.20263 1064.36129,2200.20263 C1067.4696,2200.20263 1070.58014,2200.04595 1073.35727,2199.74926 C1080.10015,2199.03604 1084.82088,2197.88964 1085.19824,2197.79642 L1085.22228,2197.79045 C1085.48612,2197.72381 1085.77004,2197.77096 1085.9948,2197.9209 L1085.9948,2197.9209 L1090.6035,2200.99593 C1090.90194,2201.19515 1091.05116,2201.54253 1090.98418,2201.88424 C1090.91682,2202.22595 1090.64667,2202.49854 1090.29241,2202.58184 C1090.14728,2202.61622 1075.63315,2206 1064.31142,2206 L1064.31142,2206 C1063.20102,2206 1062.14197,2205.96739 1061.16292,2205.90358 C1054.35426,2205.45376 1046.30048,2203.75372 1046.00837,2200.44189 C1045.84389,2198.57383 1048.10452,2197.08753 1052.72772,2196.02483 Z M1104.03513,2181 C1107.38273,2181 1111.63012,2182.44414 1112.85183,2189.32544 C1114.85415,2200.55409 1095.91509,2204.80362 1095.1077,2204.97909 C1095.0439,2204.99328 1094.97974,2205 1094.9163,2205 C1094.55331,2205 1094.21635,2204.77972 1094.07152,2204.42765 C1093.90102,2204.01434 1094.04365,2203.5357 1094.41105,2203.28817 C1097.81255,2200.99652 1106.49138,2194.12006 1105.81306,2189.87614 C1105.07352,2185.12645 1097.16557,2184.89723 1096.54451,2184.88673 L1096.50651,2184.88625 C1096.08632,2184.88588 1095.72002,2184.59429 1095.61809,2184.17949 C1095.51653,2183.76432 1095.70426,2183.33197 1096.07458,2183.12999 C1096.23445,2183.043 1100.03121,2181 1104.03513,2181 Z M1056.31244,2183 C1056.79844,2183 1057.20476,2183.37025 1057.25196,2183.8557 C1057.29917,2184.34116 1056.97139,2184.78303 1056.49445,2184.87701 C1051.50492,2185.86194 1047.47833,2187.46837 1046.82542,2188.36803 C1048.09763,2188.9126 1053.29448,2189.65007 1063.49898,2189.65007 C1072.61857,2189.65007 1085.76663,2188.96528 1092.80741,2187.03597 C1093.2345,2186.91811 1093.68161,2187.11404 1093.88892,2187.50399 C1094.09624,2187.89433 1094.00712,2188.37675 1093.67368,2188.66628 C1093.3678,2188.93193 1085.95242,2195.18219 1065.95994,2195.90071 C1064.12772,2195.96665 1062.33892,2196 1060.64453,2196 C1060.64415,2196 1060.64377,2196 1060.64302,2196 L1060.06898,2195.99875 C1047.88892,2195.94531 1039.94937,2194.18431 1037.6828,2191.02685 C1036.99401,2190.06693 1036.8222,2188.9812 1037.18622,2187.88788 C1038.67291,2183.37706 1052.51046,2183.01872 1056.01487,2183.0008 Z M1091.74319,2145.06015 C1092.17489,2144.89739 1092.6611,2145.07451 1092.88437,2145.47589 C1093.10763,2145.87726 1092.99934,2146.38027 1092.63069,2146.65608 C1092.52351,2146.73599 1081.89539,2154.71087 1079.54776,2158.91023 C1077.54468,2162.51121 1078.86498,2164.46102 1080.69302,2167.15982 C1081.87314,2168.90195 1083.21051,2170.87643 1083.77201,2173.57817 C1085.27961,2180.68697 1076.87451,2186.58721 1076.51587,2186.83503 C1076.35603,2186.9455 1076.17096,2187 1075.98664,2187 C1075.77005,2187 1075.55383,2186.92488 1075.38063,2186.77648 C1075.0602,2186.50178 1074.96785,2186.04627 1075.15625,2185.66993 C1075.80973,2184.36196 1077.36406,2180.49916 1076.70799,2178.36192 C1076.47508,2177.6203 1075.76782,2176.75163 1074.94856,2175.74598 C1072.86017,2173.18121 1070,2169.66898 1070,2163.02122 C1070,2153.37676 1090.85532,2145.39524 1091.74319,2145.06015 Z M1082.70311,2122.07897 C1083.11042,2121.90087 1083.58675,2122.03192 1083.84479,2122.3926 C1083.91118,2122.4852 1090.40837,2131.78369 1084.56266,2141.24013 C1081.89973,2145.53617 1077.34873,2149.20867 1073.3337,2152.44881 C1068.94998,2155.98652 1064.8093,2159.32784 1064.72904,2162.27301 C1064.5025,2170.7303 1070.59875,2182.51845 1070.66026,2182.63644 C1070.86279,2183.02475 1070.76715,2183.50155 1070.42997,2183.78232 C1070.25595,2183.92719 1070.04179,2184 1069.828,2184 C1069.62659,2184 1069.42481,2183.93578 1069.25603,2183.80622 C1068.53029,2183.24989 1051.54638,2170.04292 1057.12167,2157.9359 C1060.33145,2150.99601 1066.3223,2146.80116 1071.60804,2143.10028 C1075.29339,2140.52026 1078.47579,2138.2916 1079.92465,2135.67387 C1083.44048,2129.33884 1082.1769,2123.18975 1082.16377,2123.12852 C1082.07075,2122.69578 1082.29617,2122.25744 1082.70311,2122.07897 Z" transform="translate(-1029 -2122)"/>
</svg>
