<svg xmlns="http://www.w3.org/2000/svg" width="65" height="65" viewBox="0 0 104 62">
  <defs>
    <linearGradient id="wl-rounded-colored-a" x1="100%" x2="10.724%" y1="32.23%" y2="67.77%">
      <stop offset="0%" stop-color="#FFDDD5"/>
      <stop offset="54.483%" stop-color="#FDB59A"/>
      <stop offset="100%" stop-color="#FFA194"/>
    </linearGradient>
  </defs>
  <path fill="url(#wl-rounded-colored-a)" d="M20.441207,1.04860134 L23.8479693,31.4977661 C23.9204825,32.1458793 24.5004805,32.6120233 25.1434311,32.5389277 C25.5306739,32.494903 25.8708521,32.2596614 26.0509946,31.9113247 L42.2255513,0.635042768 C42.4273872,0.244758632 42.8277852,0 43.2644114,0 L60.559332,0 C61.1617636,0 61.6659936,0.460551453 61.725205,1.06487986 L65.1355064,35.8714286 L83.3468676,0.635302695 C83.5486555,0.244874655 83.9491317,0 84.3858622,0 L102.130423,0 C102.77745,0 103.301969,0.52873039 103.301969,1.18095238 C103.301969,1.370627 103.256646,1.55751114 103.169835,1.72579321 L80.886545,44.9218257 C80.5880346,45.5004868 80.8114047,46.2135175 81.3854562,46.5144247 C81.552398,46.6019324 81.7377936,46.647619 81.9259573,46.647619 L102.828454,46.647619 C103.475481,46.647619 104,47.1763494 104,47.8285714 C104,47.8316608 104,47.8347502 104,47.8378392 L103.899297,60.7677408 C103.894247,61.4163299 103.371221,61.9394304 102.727778,61.9394254 L72.1418871,61.9391812 C72.1210546,61.939181 72.101969,61.9509178 72.0924373,61.9695905 C72.0829056,61.9882634 72.0638199,62 72.0429875,62 L52.0900528,62 L65.1342725,35.878927 L64.5286027,29.7179114 L49.5463343,59.2094095 L46.7493424,33.1966816 C46.679621,32.5482575 46.1016364,32.0795797 45.458377,32.1498606 C45.0688398,32.1924203 44.7261973,32.4284602 44.5453417,32.7788328 L29.7901543,61.3641513 C29.5884671,61.7548815 29.1878278,62 28.7508778,62 L8.27122833,62 C7.67819064,62 7.1786854,61.5532935 7.10802779,60.9597525 L0.00846121714,1.32165721 C-0.0686289327,0.674081106 0.389659769,0.0861212476 1.03207768,0.00841211456 C1.07839805,0.0028090405 1.12500907,0 1.17166175,0 L19.2770419,0 C19.8732637,0 20.3743876,0.451378585 20.441207,1.04860134 Z"/>
</svg>
