<svg xmlns="http://www.w3.org/2000/svg" width="52" height="50" viewBox="0 0 52 50">
  <path fill="#0B273F" d="M1339.16678,3505.5 C1339.16678,3505.77502 1338.95382,3505.99503 1338.6853,3505.99503 C1338.37975,3506.03628 1338.16678,3505.81627 1338.16678,3505.5 C1338.16678,3505.22498 1338.37975,3505.00497 1338.64826,3505.00497 C1338.92604,3504.96372 1339.16678,3505.18373 1339.16678,3505.5 Z M1337.17981,3505.3228 C1337.1147,3505.57872 1337.30074,3505.87303 1337.57979,3505.9498 C1337.82164,3506.07776 1338.10069,3505.9498 1338.1565,3505.69388 C1338.21231,3505.43797 1338.03558,3505.14366 1337.75652,3505.0285 C1337.51468,3504.93893 1337.24492,3505.06689 1337.17981,3505.3228 Z M1341.60523,3505.00557 C1341.33059,3505.09607 1341.14119,3505.34172 1341.1696,3505.6391 C1341.19801,3505.89768 1341.44423,3506.06576 1341.72834,3505.97525 C1342.00297,3505.88475 1342.19238,3505.6391 1342.16397,3505.38051 C1342.13556,3505.13486 1341.87986,3504.96678 1341.60523,3505.00557 Z M1348.33775,3465 C1334.07626,3465 1323.16678,3475.88693 1323.16678,3490.22707 C1323.16678,3501.69298 1330.3438,3511.50466 1340.59521,3514.95788 C1341.91134,3515.19567 1342.37404,3514.37889 1342.37404,3513.70686 C1342.37404,3513.06584 1342.34319,3509.52992 1342.34319,3507.35874 C1342.34319,3507.35874 1335.14561,3508.90958 1333.63412,3504.27773 C1333.63412,3504.27773 1332.46194,3501.26909 1330.77565,3500.49366 C1330.77565,3500.49366 1328.42102,3498.87045 1330.94017,3498.90146 C1330.94017,3498.90146 1333.50045,3499.10824 1334.90912,3501.56892 C1337.16094,3505.55976 1340.93453,3504.41213 1342.40489,3503.72976 C1342.64138,3502.07553 1343.30973,3500.9279 1344.05005,3500.24553 C1338.30227,3499.60451 1332.50307,3498.76706 1332.50307,3488.82097 C1332.50307,3485.97776 1333.28453,3484.55098 1334.92969,3482.73132 C1334.66235,3482.05929 1333.78836,3479.28845 1335.19703,3475.71117 C1337.34602,3475.03913 1342.29178,3478.50269 1342.29178,3478.50269 C1344.34824,3477.92371 1346.55892,3477.62388 1348.74904,3477.62388 C1350.93916,3477.62388 1353.14985,3477.92371 1355.2063,3478.50269 C1355.2063,3478.50269 1360.15207,3475.0288 1362.30106,3475.71117 C1363.70973,3479.29879 1362.83574,3482.05929 1362.5684,3482.73132 C1364.21356,3484.56132 1365.22122,3485.9881 1365.22122,3488.82097 C1365.22122,3498.79807 1359.16497,3499.59417 1353.41719,3500.24553 C1354.36315,3501.06231 1355.16517,3502.61315 1355.16517,3505.04281 C1355.16517,3508.52704 1355.13432,3512.83839 1355.13432,3513.68618 C1355.13432,3514.35822 1355.60731,3515.17499 1356.91315,3514.9372 C1367.19541,3511.50466 1374.16678,3501.69298 1374.16678,3490.22707 C1374.16678,3475.88693 1362.59924,3465 1348.33775,3465 Z M1332.27409,3500.0897 C1332.10104,3500.22205 1332.14098,3500.52647 1332.36727,3500.77795 C1332.58026,3500.98971 1332.88642,3501.08236 1333.05947,3500.9103 C1333.23252,3500.77795 1333.19259,3500.47353 1332.96629,3500.22205 C1332.75331,3500.01029 1332.44714,3499.91764 1332.27409,3500.0897 Z M1332.19839,3499.18336 C1332.09904,3499.41986 1332.24097,3499.71095 1332.52485,3499.89287 C1332.75195,3500.0748 1333.03582,3500.02022 1333.13517,3499.76552 C1333.23453,3499.52902 1333.09259,3499.23793 1332.80872,3499.05601 C1332.52485,3498.94685 1332.29775,3499.00143 1332.19839,3499.18336 Z M1335.26249,3504.10897 C1335.09204,3504.25017 1335.15596,3504.57603 1335.40098,3504.78241 C1335.646,3505.03224 1335.95494,3505.06483 1336.09343,3504.89103 C1336.23191,3504.74983 1336.168,3504.42397 1335.95494,3504.21759 C1335.72057,3503.96776 1335.40098,3503.93517 1335.26249,3504.10897 Z M1333.31678,3502.06287 C1333.11678,3502.172 1333.11678,3502.45576 1333.31678,3502.70678 C1333.51678,3502.95779 1333.85428,3503.06693 1334.01678,3502.95779 C1334.21678,3502.81592 1334.21678,3502.53216 1334.01678,3502.28114 C1333.84178,3502.03013 1333.51678,3501.92099 1333.31678,3502.06287 Z" transform="translate(-1323 -3465)"/>
</svg>
