<svg xmlns="http://www.w3.org/2000/svg" xmlns:xlink="http://www.w3.org/1999/xlink" width="51" height="49" viewBox="0 0 51 49">
  <defs>
    <path id="linkedinicon-a" d="M1286.59535,3466 L1243.72705,3466 C1241.76277,3466 1240.16678,3467.58594 1240.16678,3469.53281 L1240.16678,3511.46719 C1240.16678,3513.41406 1241.76277,3515 1243.72705,3515 L1286.59535,3515 C1288.55964,3515 1290.16678,3513.41406 1290.16678,3511.46719 L1290.16678,3469.53281 C1290.16678,3467.58594 1288.55964,3466 1286.59535,3466 Z M1247.16678,3509 L1247.16678,3484 L1254.16678,3484 L1254.16678,3509 L1247.16678,3509 Z M1246.16678,3476 C1246.16678,3473.7974 1247.9538,3472 1250.16678,3472 C1252.36938,3472 1254.16678,3473.7974 1254.16678,3476 C1254.16678,3478.21299 1252.37977,3480 1250.16678,3480 C1247.9538,3480 1246.16678,3478.2026 1246.16678,3476 Z M1273.79613,3509 L1273.79613,3497.13327 C1273.79613,3494.30351 1273.74063,3490.66362 1269.96649,3490.66362 C1266.12576,3490.66362 1265.53744,3493.74441 1265.53744,3496.92789 L1265.53744,3509 L1258.16678,3509 L1258.16678,3484.60475 L1265.23773,3484.60475 L1265.23773,3487.93656 L1265.33763,3487.93656 C1266.32557,3486.01963 1268.73435,3484 1272.31978,3484 C1279.77924,3484 1281.16678,3489.05477 1281.16678,3495.62711 L1281.16678,3509 L1273.79613,3509 Z"/>
  </defs>
  <use fill="#0B273F" transform="translate(-1240 -3466)" xlink:href="#linkedinicon-a"/>
</svg>
