<svg xmlns="http://www.w3.org/2000/svg" width="356" height="210" viewBox="0 0 356 210">
  <path fill="none" stroke="#343434" stroke-width="5" d="M216.304717,98.414742 L169.260858,189.988111 L159.719537,101.95825 C159.481488,99.7619736 157.508079,98.1745166 155.311803,98.4125651 C153.981809,98.5567196 152.811927,99.3562094 152.194433,100.542955 L98.7032517,203.346319 C98.0146319,204.66976 96.6467328,205.5 95.1548569,205.5 L28.9666328,205.5 C26.9418284,205.5 25.2363712,203.986962 24.9951254,201.976581 L1.35512537,4.97658088 C1.09191701,2.78317794 2.65664889,0.791701 4.85005184,0.528492646 C5.00820312,0.509514492 5.16734682,0.5 5.32663272,0.5 L62.0918741,0.5 C64.1275498,0.5 65.8385336,2.02886295 66.0666747,4.05171422 L78.3653448,113.099922 C78.6129262,115.295144 80.5932094,116.874019 82.7884311,116.626437 C84.1105913,116.477321 85.2720592,115.680535 85.8871186,114.500685 L144.194749,2.65095132 C144.883876,1.32902118 146.250952,0.5 147.741722,0.5 L203.010313,0.5 C205.067201,0.5 206.788795,2.05994627 206.990948,4.10687572 L216.304717,98.414742 L216.304717,98.414742 Z M346.642516,6.34542863 L270.560836,152.654571 C269.541634,154.614552 270.304285,157.029656 272.264265,158.048858 C272.834253,158.345255 273.467248,158.5 274.109694,158.5 L347.075069,158.5 C349.284208,158.5 351.075069,160.290861 351.075069,162.5 C351.075069,162.510464 351.075028,162.520928 351.074946,162.531392 L350.770479,201.326201 C350.753238,203.523035 348.967473,205.294826 346.770571,205.294809 L244.704509,205.294011 C244.70048,205.294011 244.69645,205.294017 244.692421,205.294029 L180.43127,205.487715 L180.43127,205.487715 L226.42836,114.546256 L284.597674,2.65494283 C285.286059,1.33080327 286.654338,0.5 288.146725,0.5 L343.093658,0.5 C345.302797,0.5 347.093658,2.290861 347.093658,4.5 C347.093658,5.14244628 346.938913,5.77544097 346.642516,6.34542863 Z" transform="translate(2 2)"/>
</svg>
