<svg xmlns="http://www.w3.org/2000/svg" width="356" height="210" viewBox="0 0 356 210">
  <path fill="#343434" d="M70.3005693,3.55171422 L81.9322537,106.685982 C82.1798351,108.881204 84.1601183,110.460079 86.35534,110.212497 C87.6775002,110.063381 88.8389681,109.266595 89.4540275,108.086745 L144.678702,2.15095131 C145.367829,0.829021174 146.734905,2.93838523e-15 148.225675,0 L207.2756,0 C209.332478,-1.89896425e-14 211.054067,1.55993234 211.256232,3.60685113 L222.9,121.5 L222.9,121.5 L285.078922,2.15183171 C285.767885,0.829414155 287.135228,1.63872258e-14 288.626354,0 L349.211482,0 C351.420621,1.55813993e-14 353.211482,1.790861 353.211482,4 C353.211482,4.64244628 353.056737,5.27544097 352.76034,5.84542863 L276.67866,152.154571 C275.659458,154.114552 276.422109,156.529656 278.382089,157.548858 C278.952077,157.845255 279.585072,158 280.227518,158 L351.594766,158 C353.803905,158 355.594766,159.790861 355.594766,162 C355.594766,162.010464 355.594725,162.020928 355.594643,162.031391 L355.250936,205.826219 C355.233695,208.023053 353.44793,209.794845 351.251028,209.794828 L246.821836,209.794001 C246.750708,209.794 246.685544,209.833754 246.653,209.897 C246.620456,209.960247 246.555292,210 246.484164,210 L178.359,210 L178.359,210 L222.895787,121.525398 L220.827853,100.657442 L169.674,200.548 L160.12425,112.440373 C159.886201,110.244098 157.912792,108.656641 155.716516,108.894689 C154.386522,109.038843 153.21664,109.838333 152.599146,111.025079 L102.220614,207.846319 C101.531995,209.16976 100.164095,210 98.6722196,210 L28.7486971,210 C26.7238927,210 25.0184355,208.486962 24.7771897,206.476581 L0.537189706,4.47658088 C0.273981352,2.28317794 1.83871323,0.291701 4.03211618,0.0284926461 C4.19026746,0.00951449201 4.34941116,3.58197402e-15 4.50869706,0 L66.3257687,0 C68.3614444,8.63458223e-15 70.0724282,1.52886295 70.3005693,3.55171422 Z"/>
</svg>
