<svg xmlns="http://www.w3.org/2000/svg" width="96" height="112" viewBox="0 0 96 112">
  <defs>
    <linearGradient id="css-icon-a" x1="13.265%" x2="86.735%" y1="100%" y2="0%">
      <stop offset="0%" stop-color="#FEA7A2"/>
      <stop offset="75.322%" stop-color="#FFDACD"/>
      <stop offset="100%" stop-color="#FFE9E1"/>
    </linearGradient>
  </defs>
  <path fill="url(#css-icon-a)" d="M500,2128 L508.725,2226.95 L548,2240 L587.275,2226.95 L596,2128 L500,2128 Z M578,2147 L576.8109,2158.825 L548.247729,2171.15 L548.17341,2171.175 L575.795211,2171.175 L572.624277,2207.825 L548.297275,2215 L523.821635,2207.7 L522.236168,2189.225 L534.350124,2189.225 L535.142857,2198.8 L548.17341,2202.125 L561.724195,2198.275 L562.640793,2182.875 L521.443435,2182.75 L521.443435,2182.725 L521.393889,2182.75 L520.502064,2171.175 L548.272502,2159.5 L549.882742,2158.825 L519.436829,2158.825 L518,2147 L578,2147 Z" transform="translate(-500 -2128)"/>
</svg>
