<svg xmlns="http://www.w3.org/2000/svg" width="96" height="112" viewBox="0 0 96 112">
  <defs>
    <linearGradient id="html-icon-a" x1="13.265%" x2="86.735%" y1="100%" y2="0%">
      <stop offset="0%" stop-color="#FEA7A2"/>
      <stop offset="75.322%" stop-color="#FFDACD"/>
      <stop offset="100%" stop-color="#FFE9E1"/>
    </linearGradient>
  </defs>
  <path fill="url(#html-icon-a)" d="M675,2128 L683.725,2226.95 L722.875,2240 L762.275,2226.95 L771,2128 L675,2128 Z M751.905019,2159.06488 L706.164662,2159.06488 L707.184985,2171.55975 L750.884695,2171.55975 L747.500207,2209.09494 L723.136873,2215.92412 L723.136873,2216 L722.863127,2216 L698.300705,2209.09494 L696.807549,2189.92265 L708.678142,2189.92265 L709.54915,2199.55938 L722.863127,2203.22691 L736.226877,2199.55938 L737.720033,2183.82698 L696.1854,2183.82698 L693,2147 L753,2147 L751.905019,2159.06488 L751.905019,2159.06488 Z" transform="translate(-675 -2128)"/>
</svg>
