<svg xmlns="http://www.w3.org/2000/svg" width="100" height="100" viewBox="0 0 100 100">
  <defs>
    <linearGradient id="js-icon-a" x1="0%" x2="100%" y1="100%" y2="0%">
      <stop offset="0%" stop-color="#FEA7A2"/>
      <stop offset="75.322%" stop-color="#FFDACD"/>
      <stop offset="100%" stop-color="#FFE9E1"/>
    </linearGradient>
  </defs>
  <path fill="url(#js-icon-a)" d="M321,2134 L321,2234 L421,2234 L421,2134 L321,2134 Z M376,2211.90251 C376,2221.58205 370.315623,2226 362.033307,2226 C354.550357,2226 350.22046,2222.13707 348,2217.4527 L355.616178,2212.85714 C357.081681,2215.45463 358.413957,2217.65251 361.633624,2217.65251 C364.697859,2217.65251 366.651864,2216.45367 366.651864,2211.76931 L366.651864,2180 L376,2180 L376,2211.90251 L376,2211.90251 Z M397.765027,2226 C389.218579,2226 383.688525,2221.8292 381,2216.35782 L388.497268,2211.91794 C390.464481,2215.21422 393.043716,2217.6584 397.568306,2217.6584 C401.371585,2217.6584 403.819672,2215.70754 403.819672,2212.99427 C403.819672,2209.76527 401.327869,2208.62166 397.10929,2206.71565 L394.814208,2205.70658 C388.169399,2202.81393 383.775956,2199.15887 383.775956,2191.46756 C383.775956,2184.38168 389.043716,2179 397.240437,2179 C403.098361,2179 407.295082,2181.0854 410.311475,2186.55677 L403.142077,2191.26574 C401.568306,2188.37309 399.863388,2187.22948 397.218579,2187.22948 C394.530055,2187.22948 392.825137,2188.97853 392.825137,2191.26574 C392.825137,2194.09113 394.530055,2195.23473 398.486339,2197.0062 L400.781421,2198.01527 C408.606557,2201.44609 413,2204.9666 413,2212.85973 C413,2221.33588 406.486339,2226 397.765027,2226 L397.765027,2226 Z" transform="translate(-321 -2134)"/>
</svg>
