<svg xmlns="http://www.w3.org/2000/svg" width="755" height="269" viewBox="0 0 755 269">
  <path fill="#233647" d="M351.348425,522.114031 L371.337834,435.364045 L373.336775,435.364045 L393.326185,522.114031 L448.496955,522.114031 L487.076516,378.996543 L448.496955,378.996543 L421.911041,483.936042 L393.326185,378.996543 L351.348425,378.996543 L324.962404,483.936042 L296.177654,378.996543 L254,378.996543 L292.57956,522.114031 L351.348425,522.114031 Z M518.268441,411.977528 C529.797544,411.977528 537.849616,403.801754 537.849616,392.393697 C537.849616,380.98564 529.797544,373 518.268441,373 C507.105341,373 498.870267,380.98564 498.870267,392.393697 C498.870267,403.801754 507.105341,411.977528 518.268441,411.977528 Z M537.649722,522.114031 L537.649722,418.973495 L500.269526,418.973495 L500.269526,522.114031 L537.649722,522.114031 Z M588.666788,642 L645.39264,642 L645.39264,606.73875 L588.666788,606.73875 L593.220281,373 L555.840085,373 L551.286592,642 L588.666788,642 Z M648.191157,522.114031 L648.191157,373 L610.810961,373 L610.810961,522.114031 L648.191157,522.114031 Z M685.180011,411.977528 C696.709114,411.977528 704.761186,403.801754 704.761186,392.393697 C704.761186,380.98564 696.709114,373 685.180011,373 C674.016911,373 665.781837,380.98564 665.781837,392.393697 C665.781837,403.801754 674.016911,411.977528 685.180011,411.977528 Z M703.761716,641.845002 L703.761716,418.973495 L666.38152,418.973495 L666.38152,641.845002 L703.761716,641.845002 Z M751.136616,524.512648 C764.529521,524.512648 776.922955,519.515529 782.719884,509.92106 L784.718824,509.92106 L784.718824,522.114031 L822.298914,522.114031 L822.298914,454.353097 C822.298914,431.166465 802.109611,416.374993 771.525814,416.374993 C740.742123,416.374993 720.952608,431.166465 720.952608,454.153212 L757.133439,454.153212 C757.133439,445.358283 762.930368,440.161279 771.126026,440.161279 C779.721472,440.161279 784.718824,445.358283 784.718824,452.953904 L784.718824,457.551253 L766.728356,459.749986 C732.946254,464.347335 716.754832,474.941227 716.754832,494.929703 C716.754832,513.718871 730.747419,524.512648 751.136616,524.512648 Z M765.728885,501.92567 C757.533227,501.92567 752.735769,497.72809 752.735769,491.331778 C752.735769,485.335235 757.133439,481.137655 768.127615,479.738462 L784.718824,477.339845 L784.718824,483.536272 C784.718824,494.130164 776.922955,501.92567 765.728885,501.92567 Z M876.070426,522.114031 L876.070426,464.946989 C876.070426,454.552982 881.467567,447.7569 890.262907,447.7569 C898.658459,447.7569 904.255494,454.552982 904.255494,464.946989 L904.255494,522.114031 L941.835584,522.114031 L941.835584,464.946989 C941.835584,454.752867 947.632513,447.7569 956.627747,447.7569 C965.822875,448.15667 971.41991,455.552406 971.41991,464.946989 L971.41991,522.114031 L1009,522.114031 L1009,456.55183 C1009,432.765543 993.408261,416.574878 971.819698,416.574878 C957.027535,416.574878 945.833466,423.970614 940.436325,436.163584 L938.437384,436.163584 C933.440032,424.370383 921.046598,416.374993 907.853588,416.374993 C894.860471,416.374993 884.06619,423.970614 878.069367,435.56393 L875.870532,435.56393 L875.870532,418.973495 L838.69023,418.973495 L838.69023,522.114031 L876.070426,522.114031 Z M755.134498,641.845002 C767.328038,641.845002 775.923484,636.448113 784.119142,624.255143 L786.118083,624.255143 L786.118083,639.446385 L823.498279,639.446385 L823.498279,536.305849 L786.118083,536.305849 L786.118083,593.07312 C786.118083,603.467128 779.321684,610.662979 770.526344,610.662979 C761.731003,610.662979 756.133969,603.667013 756.133969,593.672775 L756.133969,536.305849 L718.753773,536.305849 L718.753773,600.668741 C718.753773,624.654913 733.74583,641.845002 755.134498,641.845002 Z" transform="translate(-254 -373)"/>
</svg>
